<?xml version="1.0" encoding="UTF-8"?>
<svg id="Layer_1" data-name="Layer 1" xmlns="http://www.w3.org/2000/svg" viewBox="0 0 369.7 355.4">
  <defs>
    <style>
      .cls-1 {
        fill: #cf9f52;
      }

      .cls-2 {
        fill: #1a2b3c;
      }

      .cls-3 {
        fill: #fff;
      }
    </style>
  </defs>
  <g>
    <path class="cls-1" d="M369.7,112.85c-12.08,12.49-24.17,24.98-36.25,37.47-6.36-5.82-12.72-11.64-19.07-17.45,6.35-6.08,12.71-12.16,19.07-18.23-11.68-11.41-23.35-22.83-35.03-34.24l19.1-19.5c17.4,17.32,34.79,34.63,52.18,51.95Z"/>
    <path class="cls-1" d="M369.7,240c-17.44,17.75-34.87,35.51-52.32,53.26-6.01-6.14-12.01-12.27-18.02-18.41h-.01c5.43-5.48,10.86-10.95,16.31-16.42,5.92-5.98,11.85-11.95,17.79-17.92-6.89-6.47-13.79-12.94-20.68-19.4,6.5-6.27,13-12.53,19.51-18.79,12.47,12.56,24.95,25.12,37.42,37.68Z"/>
    <path class="cls-2" d="M299.35,274.84c-1.01,1.02-2.03,2.04-3.04,3.06-5.58,5.61-11.15,11.22-16.72,16.83l-23.25,23.4-55.4-55.27-.7-.7-17.96-17.92-.15.15s-.09-.09-.13-.13l-26.57-26.57.12-.12-13.99-13.95-.1.1-26.7-26.7,26.7-26.7.02.02.02.02,14.47-14.51-.02-.02,19.32-19.32,24.97-25.04,54.06-54.19c8.26,8.07,16.52,16.14,24.78,24.22,6.45,6.3,12.89,12.6,19.34,18.9l19.1-19.5c-20.39-20.3-40.78-40.6-61.18-60.9l-32.93,32.18-41.28,40.33c-6.24,6.64-12.48,13.28-18.72,19.91l-23.7,22.25h-.01s-1.31,1.24-1.31,1.24l-53.11-51.57v-.08c-.01-.33-.01-.67-.02-1-.16-9.52-.33-19.03-.49-28.54H0v64.34l78.13,77.96L0,256.85v73.02h87.32v-39.32l51.07-52.59,8.6,8.56,16.42,16.35,18.22,18.14,29.68,29.56,45.03,44.83c20.35-20.72,40.7-41.43,61.04-62.14-6.01-6.14-12.01-12.27-18.02-18.41h-.01ZM26.04,86.81v-26.05h34.73v14.3l59.23,60.26-23.49,22.98L26.04,86.81ZM60.77,278.3v25.53H26.04v-37.79l69.45-69.96,24.51,24-59.23,58.22Z"/>
    <path class="cls-1" d="M279.08,61.5l-.02.02,19.32,18.92.04-.04c-6.45-6.3-12.89-12.6-19.34-18.9ZM244.09,218.69l42.38-42.17-42.38-42.73,45.23-44.44-19.27-18.87-45.7,45.43-15.14-15.34-17.55,17.56,17.7,17.7-26.71,26.7-17.7-17.7-14.49,14.49,17.71,17.7-17.86,17.85c4.68,4.63,9.35,9.26,14.03,13.9l17.79-17.79,26.7,26.71-17.66,17.66c6,5.95,12,11.9,18,17.85l15.18-15.24,46.32,47.62,19.78-19.78-46.36-47.11ZM197.65,176.53l26.7-26.71,26.71,26.71-26.71,26.7-26.7-26.7ZM200.24,91.47l-24.97,25.04,7.38-7.39.02.02,17.62-17.62-.05-.05Z"/>
    <path class="cls-1" d="M85.26,63.26h.06c-.02.34-.03.67-.04,1-.01-.33-.01-.67-.02-1Z"/>
    <path class="cls-1" d="M174.39,65.23c-6.37,6.26-12.74,12.53-19.1,18.8l-22.52-23.27c-12.59-.41-25.19-.81-37.79-1.22v-24.82h46.98l32.43,30.51Z"/>
    <polygon class="cls-1" points="172.76 290.07 133.79 329.87 99.58 329.87 99.58 303.83 124.34 303.83 154.65 272.05 172.76 290.07"/>
  </g>
  <g>
    <rect class="cls-3" x="86.87" y="291.61" width=".45" height="38.26"/>
    <path class="cls-3" d="M211.33,310.55l-.02.02-29.68-29.56-18.22-18.14-16.42-16.35h.01c21.44,21.33,42.89,42.68,64.33,64.03Z"/>
    <path class="cls-3" d="M315.72,258.49l-19.41,19.41c1.01-1.02,2.03-2.04,3.04-3.06,5.43-5.47,10.86-10.94,16.31-16.41l.06.06Z"/>
    <path class="cls-3" d="M85.26,63.26h-.49v-28.54c.16,9.51.33,19.02.49,28.54Z"/>
    <polygon class="cls-3" points="155.97 135.85 141.5 150.36 141.48 150.34 155.97 135.85"/>
    <path class="cls-3" d="M139.71,114.67l23.7-22.25c-7.93,7.58-15.82,14.99-23.7,22.25Z"/>
    <path class="cls-3" d="M223.41,32.18c-18.91,19.92-38.89,40.05-60,60.24,6.24-6.63,12.48-13.27,18.72-19.91l41.28-40.33Z"/>
    <path class="cls-3" d="M182,244.26c-15.38-15.22-30.57-30.41-45.57-45.57l5.03,5.03.1-.1,13.99,13.95-.12.12,26.57,26.57Z"/>
    <path class="cls-3" d="M200.94,262.86l-.03.03c-6.26-6.14-12.52-12.3-18.78-18.5l.15-.15,17.96,17.92.7.7Z"/>
  </g>
</svg>