<?xml version="1.0" encoding="UTF-8"?>
<svg id="Layer_1" data-name="Layer 1" xmlns="http://www.w3.org/2000/svg" viewBox="0 0 370.2 355.9">
  <defs>
    <style>
      .cls-1 {
        fill: #cf9f52;
      }

      .cls-2 {
        fill: #fff;
      }
    </style>
  </defs>
  <g>
    <path class="cls-1" d="M369.95,113.1c-12.08,12.49-24.17,24.98-36.25,37.47-6.36-5.82-12.72-11.64-19.07-17.45,6.35-6.08,12.71-12.16,19.07-18.23-11.68-11.41-23.35-22.83-35.03-34.24l19.1-19.5c17.4,17.32,34.79,34.63,52.18,51.95Z"/>
    <path class="cls-1" d="M332.53,202.57c12.47,12.56,24.95,25.12,37.42,37.68-17.44,17.75-34.87,35.51-52.32,53.26-6.01-6.14-12.01-12.27-18.02-18.41h-.01c5.43-5.48,10.86-10.95,16.31-16.42,5.92-5.98,11.85-11.95,17.79-17.92-6.89-6.47-13.79-12.94-20.68-19.4,6.5-6.27,13-12.53,19.51-18.79Z"/>
    <path class="cls-2" d="M317.77,61.15l-19.1,19.5c-6.45-6.3-12.89-12.6-19.34-18.9-8.26-8.08-16.52-16.15-24.78-24.22l-54.06,54.19-24.97,25.04-19.32,19.32.02.02-14.47,14.51-.02-.02-.02-.02-26.7,26.7,26.7,26.7.1-.1,13.99,13.95-.12.12,26.57,26.57.13.13.15-.15,17.96,17.92.7.7,55.4,55.27,23.25-23.4c5.57-5.61,11.14-11.22,16.72-16.83,1.01-1.02,2.03-2.04,3.04-3.06h.01c6.01,6.15,12.01,12.28,18.02,18.42-20.34,20.71-40.69,41.42-61.04,62.14l-45.03-44.83-29.68-29.56-18.22-18.14-16.42-16.35-8.6-8.56-51.07,52.59v39.32H.25v-73.02l78.13-79.83L.25,99.31V34.97h84.77c.16,9.51.33,19.02.49,28.54.01.33.01.67.02,1v.08l53.11,51.57,1.31-1.23h0s23.7-22.26,23.7-22.26c6.24-6.63,12.48-13.27,18.72-19.91l41.28-40.33L256.59.25c20.4,20.3,40.79,40.6,61.18,60.9ZM120.25,135.57l-59.23-60.26v-14.3H26.29v26.05l70.47,71.49,23.49-22.98ZM61.02,278.55l59.23-58.22-24.51-24-69.45,69.96v37.79h34.73v-25.53Z"/>
    <path class="cls-2" d="M298.67,80.65l-.04.04-19.32-18.92.02-.02c6.45,6.3,12.89,12.6,19.34,18.9Z"/>
    <path class="cls-1" d="M244.34,218.94l46.36,47.11-19.78,19.78-46.32-47.62-15.18,15.24c-6-5.95-12-11.9-18-17.85l17.66-17.66-26.7-26.71-17.79,17.79c-4.68-4.64-9.35-9.27-14.03-13.9l17.86-17.85-17.71-17.7,14.49-14.49,17.7,17.7,26.71-26.7-17.7-17.7,17.55-17.56,15.14,15.34,45.7-45.43,19.27,18.87-45.23,44.44,42.38,42.73-42.38,42.17ZM224.6,203.48l26.71-26.7-26.71-26.71-26.7,26.71,26.7,26.7Z"/>
    <polygon class="cls-2" points="200.54 91.77 182.92 109.39 182.9 109.37 175.52 116.76 200.49 91.72 200.54 91.77"/>
    <path class="cls-1" d="M174.64,65.48c-6.37,6.26-12.74,12.53-19.1,18.8l-22.52-23.27c-12.59-.41-25.19-.81-37.79-1.22v-24.82h46.98l32.43,30.51Z"/>
    <polygon class="cls-1" points="173.01 290.32 134.04 330.12 99.83 330.12 99.83 304.08 124.59 304.08 154.9 272.3 173.01 290.32"/>
    <path class="cls-1" d="M85.57,63.51c-.02.34-.03.67-.04,1-.01-.33-.01-.67-.02-1h.06Z"/>
  </g>
  <g>
    <rect class="cls-2" x="87.12" y="291.86" width=".45" height="38.26"/>
    <path class="cls-2" d="M211.58,310.8l-.02.02-29.68-29.56-18.22-18.14-16.42-16.35h.01c21.44,21.33,42.89,42.68,64.33,64.03Z"/>
    <path class="cls-2" d="M315.97,258.74l-19.41,19.41c1.01-1.02,2.03-2.04,3.04-3.06,5.43-5.47,10.86-10.94,16.31-16.41l.06.06Z"/>
    <path class="cls-2" d="M85.51,63.51h-.49v-28.54c.16,9.51.33,19.02.49,28.54Z"/>
    <polygon class="cls-2" points="156.22 136.1 141.75 150.61 141.73 150.59 156.22 136.1"/>
    <path class="cls-2" d="M139.96,114.92l23.7-22.25c-7.93,7.58-15.82,14.99-23.7,22.25Z"/>
    <path class="cls-2" d="M223.66,32.43c-18.91,19.92-38.89,40.05-60,60.24,6.24-6.63,12.48-13.27,18.72-19.91l41.28-40.33Z"/>
    <path class="cls-2" d="M182.25,244.51c-15.38-15.22-30.57-30.41-45.57-45.57l5.03,5.03.1-.1,13.99,13.95-.12.12,26.57,26.57Z"/>
    <path class="cls-2" d="M201.19,263.11l-.03.03c-6.26-6.14-12.52-12.3-18.78-18.5l.15-.15,17.96,17.92.7.7Z"/>
  </g>
</svg>